<?xml version="1.0" encoding="utf-8"?>
<!-- Generator: Adobe Illustrator 27.8.1, SVG Export Plug-In . SVG Version: 6.00 Build 0)  -->
<svg version="1.1" id="Ebene_1" xmlns="http://www.w3.org/2000/svg" xmlns:xlink="http://www.w3.org/1999/xlink" x="0px" y="0px"
	 viewBox="0 0 124 46.5" style="enable-background:new 0 0 124 46.5;" xml:space="preserve">
<style type="text/css">
	.st0{fill:#00549F;}
	.st1{fill:#BDCD00;}
	.st2{fill:#F6A800;}
	.st3{fill:#9C9E9F;}
</style>
<path class="st0" d="M121.1,46.4h1.4v-3.3c0-0.2,0-0.3,0.1-0.5c0.1-0.1,0.1-0.2,0.2-0.3c0.1-0.1,0.2-0.1,0.3-0.2s0.2-0.1,0.4-0.1
	c0.1,0,0.1,0,0.2,0c0.1,0,0.1,0,0.2,0v-1.3c0,0-0.1,0-0.1,0c0,0-0.1,0-0.1,0c-0.3,0-0.5,0.1-0.7,0.2c-0.2,0.2-0.4,0.4-0.5,0.6h0
	v-0.7h-1.4L121.1,46.4L121.1,46.4z M117.5,43v-0.2c0-0.1,0-0.3,0-0.4s0.1-0.2,0.1-0.4c0.1-0.1,0.1-0.2,0.2-0.3
	c0.1-0.1,0.2-0.1,0.4-0.1c0.1,0,0.3,0,0.4,0.1c0.1,0.1,0.2,0.1,0.2,0.3c0.1,0.1,0.1,0.2,0.1,0.4c0,0.2,0,0.3,0,0.6L117.5,43
	L117.5,43z M120.3,43.9v-0.3c0-0.4,0-0.8-0.1-1.2c-0.1-0.3-0.2-0.6-0.3-0.9c-0.1-0.2-0.4-0.4-0.6-0.6c-0.3-0.1-0.6-0.2-1-0.2
	c-0.5,0-0.9,0.1-1.1,0.2c-0.3,0.2-0.5,0.4-0.7,0.6c-0.2,0.3-0.3,0.6-0.3,0.9c-0.1,0.3-0.1,0.7-0.1,1.1c0,0.3,0,0.7,0,1
	c0,0.4,0.1,0.7,0.3,1c0.1,0.3,0.3,0.5,0.6,0.7c0.3,0.2,0.7,0.3,1.2,0.3c0.7,0,1.2-0.2,1.5-0.5c0.3-0.3,0.5-0.8,0.5-1.5H119
	c0,0.3-0.1,0.6-0.2,0.8c-0.1,0.2-0.3,0.3-0.5,0.3c-0.1,0-0.2,0-0.3-0.1c-0.1-0.1-0.2-0.2-0.2-0.3c-0.1-0.1-0.1-0.3-0.1-0.4
	c0-0.2,0-0.3,0-0.5v-0.4L120.3,43.9L120.3,43.9z M113.5,40.9h-0.7v1h0.7V45c0,0.3,0,0.5,0.1,0.7c0,0.2,0.1,0.3,0.2,0.4
	c0.1,0.1,0.2,0.2,0.4,0.2c0.2,0,0.4,0.1,0.7,0.1c0.2,0,0.3,0,0.5,0s0.3,0,0.5,0v-1c0,0-0.1,0-0.2,0c-0.1,0-0.1,0-0.2,0
	c-0.2,0-0.3,0-0.4-0.1c-0.1-0.1-0.1-0.2-0.1-0.5v-3h0.8v-1h-0.8v-1.6h-1.4L113.5,40.9L113.5,40.9z M108,46.4h1.4v-3.7
	c0-0.6,0.2-0.9,0.7-0.9c0.2,0,0.4,0.1,0.5,0.2c0.1,0.1,0.1,0.3,0.1,0.6v3.8h1.4v-4.1c0-0.6-0.1-1-0.4-1.2c-0.2-0.2-0.6-0.4-1-0.4
	c-0.3,0-0.6,0.1-0.8,0.2c-0.2,0.1-0.4,0.3-0.6,0.6h0v-0.6H108L108,46.4L108,46.4z M104.3,43v-0.2c0-0.1,0-0.3,0-0.4s0.1-0.2,0.1-0.4
	c0.1-0.1,0.1-0.2,0.2-0.3c0.1-0.1,0.2-0.1,0.4-0.1s0.3,0,0.4,0.1c0.1,0.1,0.2,0.1,0.2,0.3c0.1,0.1,0.1,0.2,0.1,0.4
	c0,0.2,0,0.3,0,0.6L104.3,43L104.3,43z M107.1,43.9v-0.3c0-0.4,0-0.8-0.1-1.2c-0.1-0.3-0.2-0.6-0.3-0.9c-0.1-0.2-0.4-0.4-0.6-0.6
	c-0.3-0.1-0.6-0.2-1-0.2c-0.5,0-0.9,0.1-1.1,0.2c-0.3,0.2-0.5,0.4-0.7,0.6c-0.2,0.3-0.3,0.6-0.3,0.9c-0.1,0.3-0.1,0.7-0.1,1.1
	c0,0.3,0,0.7,0,1c0,0.4,0.1,0.7,0.2,1c0.1,0.3,0.3,0.5,0.6,0.7c0.3,0.2,0.7,0.3,1.2,0.3c0.7,0,1.2-0.2,1.5-0.5
	c0.3-0.3,0.5-0.8,0.5-1.5h-1.3c0,0.3-0.1,0.6-0.2,0.8c-0.1,0.2-0.3,0.3-0.5,0.3c-0.1,0-0.2,0-0.3-0.1c-0.1-0.1-0.2-0.2-0.2-0.3
	c-0.1-0.1-0.1-0.3-0.1-0.4c0-0.2,0-0.3,0-0.5v-0.4L107.1,43.9L107.1,43.9z M102.2,41.6c0-0.3,0-0.6-0.1-0.9s-0.1-0.6-0.3-0.8
	c-0.2-0.3-0.4-0.5-0.7-0.6c-0.3-0.2-0.7-0.3-1.2-0.3c-0.6,0-1,0.1-1.3,0.3S98,39.7,97.8,40c-0.2,0.3-0.3,0.7-0.3,1.2
	c-0.1,0.5-0.1,1-0.1,1.5c0,0.6,0,1.1,0.1,1.5c0.1,0.5,0.2,0.9,0.3,1.2c0.2,0.3,0.4,0.6,0.8,0.8c0.3,0.2,0.8,0.3,1.3,0.3
	c0.5,0,0.9-0.1,1.2-0.2s0.5-0.4,0.7-0.6c0.2-0.3,0.3-0.6,0.3-0.9c0.1-0.4,0.1-0.7,0.1-1.1h-1.5c0,0.4,0,0.7-0.1,1
	c0,0.2-0.1,0.4-0.2,0.6s-0.2,0.2-0.3,0.3c-0.1,0-0.2,0.1-0.4,0.1c-0.2,0-0.3,0-0.4-0.1c-0.1-0.1-0.2-0.2-0.3-0.4
	c-0.1-0.2-0.1-0.5-0.2-0.8c0-0.3-0.1-0.8-0.1-1.3c0-0.5,0-1,0-1.3c0-0.4,0.1-0.6,0.1-0.9s0.2-0.4,0.3-0.5c0.1-0.1,0.3-0.1,0.5-0.1
	c0.3,0,0.6,0.1,0.7,0.4c0.1,0.2,0.2,0.6,0.2,1.2L102.2,41.6L102.2,41.6z M91.6,43v-0.2c0-0.1,0-0.3,0-0.4c0-0.1,0.1-0.2,0.1-0.4
	c0.1-0.1,0.1-0.2,0.2-0.3c0.1-0.1,0.2-0.1,0.4-0.1s0.3,0,0.4,0.1c0.1,0.1,0.2,0.1,0.2,0.3c0.1,0.1,0.1,0.2,0.1,0.4
	c0,0.2,0,0.3,0,0.6L91.6,43L91.6,43z M94.4,43.9v-0.3c0-0.4,0-0.8-0.1-1.2c-0.1-0.3-0.2-0.6-0.3-0.9c-0.2-0.2-0.4-0.4-0.6-0.6
	c-0.3-0.1-0.6-0.2-1-0.2c-0.5,0-0.9,0.1-1.1,0.2c-0.3,0.2-0.5,0.4-0.7,0.6c-0.2,0.3-0.3,0.6-0.3,0.9c-0.1,0.3-0.1,0.7-0.1,1.1
	c0,0.3,0,0.7,0,1c0,0.4,0.1,0.7,0.3,1c0.1,0.3,0.3,0.5,0.6,0.7s0.7,0.3,1.2,0.3c0.7,0,1.2-0.2,1.5-0.5c0.3-0.3,0.5-0.8,0.5-1.5H93
	c0,0.3-0.1,0.6-0.2,0.8s-0.3,0.3-0.5,0.3c-0.1,0-0.2,0-0.3-0.1c-0.1-0.1-0.2-0.2-0.2-0.3c-0.1-0.1-0.1-0.3-0.1-0.4
	c0-0.2,0-0.3,0-0.5v-0.4L94.4,43.9L94.4,43.9z M89.5,42.9c0-0.7-0.2-1.2-0.5-1.6c-0.3-0.4-0.8-0.6-1.5-0.6c-0.3,0-0.6,0-0.9,0.1
	c-0.3,0.1-0.5,0.2-0.7,0.5c-0.2,0.2-0.4,0.5-0.5,0.9c-0.1,0.4-0.2,0.8-0.2,1.4c0,0.6,0,1,0.1,1.4c0.1,0.4,0.2,0.7,0.4,0.9
	c0.2,0.2,0.4,0.4,0.7,0.5c0.3,0.1,0.6,0.1,0.9,0.1c0.8,0,1.3-0.2,1.6-0.6c0.3-0.4,0.5-0.9,0.5-1.7h-1.3c0,0.4-0.1,0.8-0.2,1
	s-0.3,0.3-0.5,0.3c-0.2,0-0.3,0-0.4-0.1c-0.1-0.1-0.2-0.2-0.2-0.3c-0.1-0.2-0.1-0.4-0.1-0.6c0-0.2,0-0.5,0-0.9c0-0.3,0-0.6,0-0.8
	c0-0.2,0.1-0.4,0.1-0.6c0.1-0.2,0.1-0.3,0.2-0.3c0.1-0.1,0.2-0.1,0.4-0.1c0.1,0,0.2,0,0.3,0.1c0.1,0.1,0.1,0.2,0.2,0.3
	c0,0.1,0.1,0.2,0.1,0.4c0,0.1,0,0.3,0,0.4L89.5,42.9L89.5,42.9z M80.3,46.4h1.4v-3.7c0-0.6,0.2-0.9,0.7-0.9c0.2,0,0.4,0.1,0.5,0.2
	c0.1,0.1,0.1,0.3,0.1,0.6v3.8h1.4v-4.1c0-0.6-0.1-1-0.4-1.2c-0.2-0.2-0.6-0.4-1-0.4c-0.3,0-0.6,0.1-0.8,0.2
	c-0.2,0.1-0.4,0.3-0.6,0.6h0v-0.6h-1.4C80.3,40.9,80.3,46.4,80.3,46.4z M76.7,43v-0.2c0-0.1,0-0.3,0-0.4c0-0.1,0.1-0.2,0.1-0.4
	c0.1-0.1,0.1-0.2,0.2-0.3c0.1-0.1,0.2-0.1,0.4-0.1c0.1,0,0.3,0,0.4,0.1c0.1,0.1,0.2,0.1,0.2,0.3c0.1,0.1,0.1,0.2,0.1,0.4
	c0,0.2,0,0.3,0,0.6L76.7,43L76.7,43z M79.5,43.9v-0.3c0-0.4,0-0.8-0.1-1.2c-0.1-0.3-0.2-0.6-0.3-0.9c-0.2-0.2-0.4-0.4-0.6-0.6
	c-0.3-0.1-0.6-0.2-1-0.2c-0.5,0-0.9,0.1-1.1,0.2c-0.3,0.2-0.5,0.4-0.7,0.6c-0.2,0.3-0.3,0.6-0.3,0.9c-0.1,0.3-0.1,0.7-0.1,1.1
	c0,0.3,0,0.7,0,1c0,0.4,0.1,0.7,0.2,1c0.1,0.3,0.3,0.5,0.6,0.7c0.3,0.2,0.7,0.3,1.2,0.3c0.7,0,1.2-0.2,1.5-0.5
	c0.3-0.3,0.5-0.8,0.5-1.5h-1.3c0,0.3-0.1,0.6-0.2,0.8c-0.1,0.2-0.3,0.3-0.5,0.3c-0.1,0-0.2,0-0.3-0.1c-0.1-0.1-0.2-0.2-0.2-0.3
	c-0.1-0.1-0.1-0.3-0.1-0.4c0-0.2,0-0.3,0-0.5v-0.4L79.5,43.9L79.5,43.9z M73,46.4h1.4v-5.5H73V46.4z M73,40.2h1.4V39H73V40.2z
	 M72.2,42.9c0-0.7-0.2-1.2-0.5-1.6c-0.3-0.4-0.8-0.6-1.5-0.6c-0.3,0-0.6,0-0.9,0.1c-0.3,0.1-0.5,0.2-0.7,0.5
	c-0.2,0.2-0.4,0.5-0.5,0.9C68,42.6,68,43.1,68,43.6c0,0.6,0,1,0.1,1.4c0.1,0.4,0.2,0.7,0.4,0.9c0.2,0.2,0.4,0.4,0.7,0.5
	c0.3,0.1,0.6,0.1,0.9,0.1c0.8,0,1.3-0.2,1.6-0.6c0.3-0.4,0.5-0.9,0.5-1.7h-1.3c0,0.4-0.1,0.8-0.2,1c-0.1,0.2-0.3,0.3-0.5,0.3
	c-0.2,0-0.3,0-0.4-0.1c-0.1-0.1-0.2-0.2-0.2-0.3c-0.1-0.2-0.1-0.4-0.1-0.6c0-0.2,0-0.5,0-0.9c0-0.3,0-0.6,0-0.8
	c0-0.2,0.1-0.4,0.1-0.6c0.1-0.2,0.1-0.3,0.2-0.3c0.1-0.1,0.2-0.1,0.4-0.1c0.1,0,0.2,0,0.3,0.1s0.2,0.2,0.2,0.3
	c0,0.1,0.1,0.2,0.1,0.4c0,0.1,0,0.3,0,0.4L72.2,42.9L72.2,42.9z M62.5,44.1v0.3c0,0.7,0.2,1.2,0.5,1.6s1,0.6,1.8,0.6
	c0.8,0,1.4-0.2,1.9-0.5s0.7-0.9,0.7-1.7c0-0.2,0-0.4-0.1-0.6c0-0.2-0.1-0.4-0.2-0.5c-0.1-0.2-0.2-0.3-0.4-0.4s-0.4-0.3-0.7-0.4
	l-1.1-0.5c-0.3-0.1-0.5-0.3-0.6-0.4c-0.1-0.2-0.1-0.3-0.1-0.6c0-0.1,0-0.2,0-0.3c0-0.1,0.1-0.2,0.1-0.3c0.1-0.1,0.2-0.1,0.3-0.2
	c0.1,0,0.2-0.1,0.4-0.1c0.3,0,0.5,0.1,0.6,0.3c0.1,0.2,0.2,0.5,0.2,0.8h1.4v-0.2c0-0.3-0.1-0.6-0.2-0.9c-0.1-0.2-0.3-0.5-0.5-0.6
	c-0.2-0.2-0.4-0.3-0.7-0.3C65.5,39,65.2,39,64.8,39c-0.7,0-1.3,0.2-1.7,0.5c-0.4,0.4-0.6,0.9-0.6,1.6c0,0.3,0,0.6,0.1,0.8
	c0.1,0.2,0.2,0.4,0.4,0.6c0.2,0.2,0.4,0.3,0.6,0.5c0.2,0.1,0.5,0.2,0.8,0.4c0.2,0.1,0.5,0.2,0.6,0.2s0.3,0.2,0.4,0.3
	c0.1,0.1,0.2,0.2,0.2,0.3c0,0.1,0.1,0.3,0.1,0.4c0,0.3-0.1,0.5-0.3,0.7c-0.2,0.1-0.4,0.2-0.6,0.2c-0.2,0-0.4,0-0.5-0.1
	c-0.1-0.1-0.2-0.1-0.3-0.2c-0.1-0.1-0.1-0.2-0.2-0.4c0-0.1,0-0.3,0-0.5v-0.2L62.5,44.1L62.5,44.1z"/>
<path class="st0" d="M95,34.8h1.4v-7.3H95V34.8z M91.3,31.4v-0.2c0-0.1,0-0.3,0-0.4c0-0.1,0.1-0.2,0.1-0.4c0.1-0.1,0.1-0.2,0.2-0.3
	s0.2-0.1,0.4-0.1s0.3,0,0.4,0.1c0.1,0.1,0.2,0.1,0.2,0.3c0.1,0.1,0.1,0.2,0.1,0.4c0,0.2,0,0.3,0,0.6L91.3,31.4L91.3,31.4z
	 M94.1,32.3v-0.3c0-0.4,0-0.8-0.1-1.2c-0.1-0.3-0.2-0.6-0.3-0.9c-0.2-0.2-0.4-0.4-0.6-0.6c-0.3-0.1-0.6-0.2-1-0.2
	c-0.5,0-0.9,0.1-1.1,0.2c-0.3,0.2-0.5,0.4-0.7,0.6c-0.2,0.3-0.3,0.6-0.3,0.9c-0.1,0.3-0.1,0.7-0.1,1.1c0,0.3,0,0.7,0,1
	c0,0.3,0.1,0.7,0.3,1c0.1,0.3,0.3,0.5,0.6,0.7c0.3,0.2,0.7,0.3,1.2,0.3c0.7,0,1.2-0.2,1.5-0.5c0.3-0.3,0.5-0.8,0.5-1.5h-1.3
	c0,0.3-0.1,0.6-0.2,0.8S92.3,34,92,34c-0.1,0-0.2,0-0.3-0.1c-0.1-0.1-0.2-0.2-0.2-0.3c-0.1-0.1-0.1-0.3-0.1-0.4c0-0.2,0-0.3,0-0.5
	v-0.4L94.1,32.3L94.1,32.3z M87.7,34.8h1.3v-5.5h-1.4v3.7c0,0.6-0.2,0.9-0.7,0.9c-0.2,0-0.4-0.1-0.5-0.2c-0.1-0.1-0.1-0.3-0.1-0.6
	v-3.8h-1.4v4.1c0,0.6,0.1,1,0.4,1.2c0.2,0.2,0.6,0.4,1,0.4c0.3,0,0.6-0.1,0.8-0.2c0.2-0.1,0.4-0.3,0.6-0.6h0V34.8z M80.2,34.8h1.5
	v-3.2h2.5v-1.2h-2.5v-1.7h2.6v-1.2h-4.1V34.8z M74.2,31.4v-0.2c0-0.1,0-0.3,0-0.4c0-0.1,0.1-0.2,0.1-0.4c0.1-0.1,0.1-0.2,0.2-0.3
	c0.1-0.1,0.2-0.1,0.4-0.1s0.3,0,0.4,0.1c0.1,0.1,0.2,0.1,0.2,0.3c0.1,0.1,0.1,0.2,0.1,0.4c0,0.2,0,0.3,0,0.6L74.2,31.4L74.2,31.4z
	 M77,32.3v-0.3c0-0.4,0-0.8-0.1-1.2c-0.1-0.3-0.2-0.6-0.3-0.9c-0.2-0.2-0.4-0.4-0.6-0.6c-0.3-0.1-0.6-0.2-1-0.2
	c-0.5,0-0.9,0.1-1.1,0.2c-0.3,0.2-0.5,0.4-0.7,0.6c-0.2,0.3-0.3,0.6-0.3,0.9c-0.1,0.3-0.1,0.7-0.1,1.1c0,0.3,0,0.7,0,1
	c0,0.3,0.1,0.7,0.3,1c0.1,0.3,0.3,0.5,0.6,0.7c0.3,0.2,0.7,0.3,1.2,0.3c0.7,0,1.2-0.2,1.5-0.5s0.5-0.8,0.5-1.5h-1.3
	c0,0.3-0.1,0.6-0.2,0.8c-0.1,0.2-0.3,0.3-0.5,0.3c-0.1,0-0.2,0-0.3-0.1c-0.1-0.1-0.2-0.2-0.2-0.3c-0.1-0.1-0.1-0.3-0.1-0.4
	c0-0.2,0-0.3,0-0.5v-0.4L77,32.3L77,32.3z M67.7,34.8h1.4v-3.7c0-0.6,0.2-0.9,0.7-0.9c0.2,0,0.4,0.1,0.5,0.2
	c0.1,0.1,0.1,0.3,0.1,0.6v3.8h1.4v-4.1c0-0.6-0.1-1-0.4-1.2c-0.2-0.2-0.6-0.4-1-0.4c-0.6,0-1.1,0.2-1.3,0.7h0v-2.4h-1.4V34.8z
	 M62.4,27.5v1.2H64v6.1h1.5v-6.1H67v-1.2H62.4z"/>
<path class="st1" d="M26.7,24.7l-3.5-1.2c-0.5,1.5-0.7,2.8-0.8,3.9c1,0.3,1.9,0.7,2.7,1.2c0.4,0.3,0.8,0.7,1.2,1
	c-0.1-0.7-0.2-1.4-0.2-2C26.1,26.9,26.3,25.9,26.7,24.7 M33.6,12.5l-3-2.1c-1.6,2.2-2.9,4.3-4.1,6.2l3.2,1.9
	C30.8,16.7,32.1,14.7,33.6,12.5"/>
<path class="st2" d="M39.6,6.8l2.9-2.3c-1.4-1.8-2.4-2.9-2.4-2.9L38.8,0l-1.4,1.6c0,0-0.9,1.1-2.4,2.9l2.9,2.3
	c0.3-0.4,0.6-0.8,0.9-1.1C39,6.1,39.3,6.4,39.6,6.8 M51,16.6c-1.1-1.9-2.5-4-4.1-6.2l-3,2.1c1.5,2.1,2.8,4.1,3.9,6L51,16.6z"/>
<path class="st3" d="M52.4,36.8l-3.1-2.1c-0.9,1.4-2.1,2.6-3.5,3.5l2.1,3.1C49.7,40.1,51.2,38.6,52.4,36.8 M55.1,27.7
	c0-1.2-0.3-2.6-0.8-4.2l-3.5,1.2c0.4,1.2,0.6,2.2,0.6,3c0,0.8-0.1,1.7-0.2,2.5l3.6,0.7C55,29.8,55.1,28.8,55.1,27.7"/>
<path class="st0" d="M43.1,35.1c-0.1-1-0.4-1.8-0.8-2.5c-0.4-0.7-0.9-1.4-1.6-1.9c-0.6-0.5-1.4-0.9-2.2-1.1
	c-0.8-0.3-1.7-0.4-2.6-0.4c-1.3,0-2.4,0.2-3.4,0.7c-1,0.4-1.8,1.1-2.5,1.8c-0.7,0.8-1.2,1.7-1.6,2.8c-0.4,1.1-0.6,2.2-0.6,3.4
	c0,1.2,0.2,2.3,0.6,3.3c0.4,1,0.9,2,1.6,2.7c0.7,0.8,1.5,1.4,2.5,1.8c1,0.4,2.1,0.7,3.4,0.7c1,0,1.9-0.2,2.8-0.5
	c0.8-0.3,1.6-0.8,2.2-1.3c0.6-0.6,1.1-1.3,1.5-2.1c0.4-0.8,0.6-1.8,0.7-2.8h-3.5c-0.1,1.1-0.5,2-1.1,2.7s-1.5,1-2.6,1
	c-0.8,0-1.5-0.2-2.1-0.5c-0.6-0.3-1-0.7-1.4-1.3c-0.4-0.5-0.6-1.1-0.8-1.8c-0.2-0.7-0.2-1.3-0.2-2c0-0.7,0.1-1.4,0.2-2.1
	c0.2-0.7,0.4-1.3,0.8-1.8c0.4-0.5,0.8-1,1.4-1.3c0.6-0.3,1.3-0.5,2.1-0.5c0.4,0,0.9,0.1,1.3,0.2c0.4,0.1,0.8,0.3,1.1,0.6
	c0.3,0.3,0.6,0.6,0.8,0.9c0.2,0.3,0.4,0.7,0.4,1.1L43.1,35.1L43.1,35.1z M12.6,40.5c0,1,0.2,1.9,0.6,2.6c0.4,0.7,0.9,1.3,1.6,1.8
	c0.6,0.5,1.4,0.8,2.2,1.1c0.9,0.2,1.7,0.3,2.6,0.3c1.1,0,2.1-0.1,3-0.4c0.9-0.3,1.6-0.6,2.1-1.1s1-1,1.3-1.7
	c0.3-0.6,0.4-1.3,0.4-2.1c0-0.6-0.1-1.2-0.3-1.6c-0.2-0.5-0.4-0.9-0.7-1.2c-0.3-0.3-0.6-0.6-1-0.9c-0.4-0.2-0.7-0.4-1.1-0.6
	s-0.7-0.3-1-0.3c-0.3-0.1-0.6-0.2-0.8-0.2c-1-0.3-1.9-0.5-2.5-0.7c-0.6-0.2-1.1-0.3-1.5-0.5c-0.4-0.2-0.6-0.3-0.7-0.5
	c-0.1-0.2-0.2-0.5-0.2-0.8c0-0.3,0.1-0.6,0.2-0.9s0.3-0.4,0.6-0.6c0.2-0.2,0.5-0.3,0.8-0.3c0.3-0.1,0.6-0.1,0.9-0.1
	c0.4,0,0.8,0,1.2,0.1c0.4,0.1,0.7,0.2,1,0.4s0.5,0.4,0.7,0.8c0.2,0.3,0.3,0.7,0.3,1.2H26c0-1-0.2-1.8-0.5-2.4s-0.8-1.2-1.5-1.6
	c-0.6-0.4-1.3-0.7-2.1-0.9c-0.8-0.2-1.6-0.3-2.5-0.3c-0.7,0-1.5,0.1-2.2,0.3c-0.7,0.2-1.4,0.5-2,0.9c-0.6,0.4-1.1,0.9-1.4,1.6
	c-0.4,0.6-0.5,1.4-0.5,2.2c0,0.8,0.1,1.4,0.4,1.9c0.3,0.5,0.7,1,1.1,1.3c0.5,0.4,1,0.6,1.6,0.9c0.6,0.2,1.2,0.4,1.8,0.6
	c0.6,0.2,1.2,0.3,1.8,0.4c0.6,0.1,1.1,0.3,1.6,0.5c0.5,0.2,0.8,0.4,1.1,0.7c0.3,0.3,0.4,0.6,0.4,1.1c0,0.4-0.1,0.8-0.3,1
	c-0.2,0.3-0.5,0.5-0.8,0.6c-0.3,0.2-0.7,0.3-1,0.3c-0.4,0.1-0.7,0.1-1,0.1c-0.5,0-1-0.1-1.4-0.2c-0.4-0.1-0.8-0.3-1.2-0.5
	c-0.3-0.2-0.6-0.6-0.8-0.9c-0.2-0.4-0.3-0.9-0.3-1.4L12.6,40.5L12.6,40.5z M0,46h3.6v-6.8h6.9v-2.8H3.6v-3.8h8v-3H0V46z"/>
</svg>
