<?xml version="1.0" encoding="utf-8"?>
<!-- Generator: Adobe Illustrator 27.8.1, SVG Export Plug-In . SVG Version: 6.00 Build 0)  -->
<svg version="1.1" id="Ebene_1" xmlns="http://www.w3.org/2000/svg" xmlns:xlink="http://www.w3.org/1999/xlink" x="0px" y="0px"
	 viewBox="0 0 133.2 57.6" style="enable-background:new 0 0 133.2 57.6;" xml:space="preserve">
<style type="text/css">
	.st0{fill:#00549F;}
	.st1{fill:#FFFFFF;}
	.st2{fill:#8EBAE5;}
	.st3{fill:#CC071E;}
	.st4{fill:#9C9E9F;}
</style>
<g>
	<path class="st0" d="M130.4,48.6v-0.2c0-0.1,0-0.3,0-0.4c0-0.1,0.1-0.2,0.1-0.4c0.1-0.1,0.1-0.2,0.2-0.3c0.1-0.1,0.2-0.1,0.4-0.1
		c0.1,0,0.3,0,0.4,0.1s0.2,0.1,0.2,0.3c0.1,0.1,0.1,0.2,0.1,0.4c0,0.2,0,0.3,0,0.6H130.4z M133.2,49.5v-0.3c0-0.4,0-0.8-0.1-1.2
		c-0.1-0.3-0.2-0.6-0.3-0.9c-0.1-0.2-0.4-0.4-0.6-0.6c-0.3-0.1-0.6-0.2-1-0.2c-0.5,0-0.9,0.1-1.1,0.2c-0.3,0.2-0.5,0.4-0.7,0.6
		c-0.2,0.3-0.3,0.6-0.3,0.9c-0.1,0.3-0.1,0.7-0.1,1.1c0,0.3,0,0.7,0,1c0,0.3,0.1,0.7,0.3,1c0.1,0.3,0.3,0.5,0.6,0.7
		c0.3,0.2,0.7,0.3,1.2,0.3c0.7,0,1.2-0.2,1.5-0.5c0.3-0.3,0.5-0.8,0.5-1.5h-1.3c0,0.3-0.1,0.6-0.2,0.8c-0.1,0.2-0.3,0.3-0.5,0.3
		c-0.1,0-0.2,0-0.3-0.1c-0.1-0.1-0.2-0.2-0.2-0.3s-0.1-0.3-0.1-0.4c0-0.2,0-0.3,0-0.5v-0.4L133.2,49.5L133.2,49.5z M126.7,52h1.4
		v-5.5h-1.4V52z M126.7,45.8h1.4v-1.2h-1.4V45.8z M121.5,52h1.4v-3.7c0-0.6,0.2-0.9,0.7-0.9c0.2,0,0.4,0.1,0.5,0.2
		c0.1,0.1,0.1,0.3,0.1,0.6V52h1.4v-4.1c0-0.6-0.1-1-0.4-1.2c-0.2-0.2-0.6-0.4-1-0.4c-0.6,0-1.1,0.2-1.3,0.7h0v-2.4h-1.4V52z
		 M117.9,47.9c0.1-0.3,0.3-0.5,0.6-0.5c0.3,0,0.5,0.2,0.6,0.5s0.1,0.8,0.1,1.4c0,0.6,0,1.1-0.1,1.4s-0.3,0.5-0.6,0.5
		c-0.3,0-0.5-0.2-0.6-0.5s-0.1-0.8-0.1-1.4C117.7,48.7,117.8,48.2,117.9,47.9 M116.3,53.8h1.4v-2.3h0c0.1,0.2,0.3,0.4,0.5,0.5
		c0.2,0.1,0.4,0.2,0.7,0.2c0.6,0,1-0.2,1.3-0.7c0.3-0.5,0.4-1.2,0.4-2.2c0-1-0.1-1.8-0.4-2.2c-0.3-0.5-0.7-0.7-1.3-0.7
		c-0.3,0-0.5,0.1-0.7,0.2c-0.2,0.1-0.4,0.3-0.5,0.6h0v-0.6h-1.4L116.3,53.8L116.3,53.8z M113.9,50.4c0,0.2,0,0.3-0.1,0.4
		c-0.1,0.1-0.1,0.2-0.2,0.3c-0.1,0.1-0.2,0.1-0.3,0.1c-0.1,0-0.2,0-0.3,0c-0.2,0-0.3-0.1-0.4-0.2c-0.1-0.2-0.1-0.3-0.1-0.5
		c0-0.2,0.1-0.4,0.2-0.6c0.1-0.1,0.3-0.2,0.6-0.3c0.1,0,0.2-0.1,0.3-0.1c0.1,0,0.2-0.1,0.3-0.2V50.4z M112.6,48.2v-0.2
		c0-0.2,0.1-0.4,0.2-0.5c0.1-0.1,0.3-0.2,0.5-0.2c0.2,0,0.4,0.1,0.5,0.2s0.1,0.3,0.1,0.5c0,0.2,0,0.3-0.1,0.4
		c-0.1,0.1-0.2,0.2-0.4,0.2l-0.8,0.2c-0.2,0.1-0.5,0.1-0.6,0.2s-0.3,0.2-0.4,0.3c-0.1,0.1-0.2,0.3-0.3,0.5c-0.1,0.2-0.1,0.4-0.1,0.7
		c0,0.2,0,0.4,0.1,0.6c0,0.2,0.1,0.4,0.2,0.5c0.1,0.2,0.2,0.3,0.4,0.4c0.2,0.1,0.4,0.1,0.6,0.1c0.3,0,0.6,0,0.8-0.1s0.4-0.3,0.6-0.6
		h0c0,0.1,0,0.2,0.1,0.3c0,0.1,0.1,0.2,0.1,0.3h1.4c-0.1-0.2-0.1-0.3-0.1-0.5c0-0.1,0-0.3,0-0.6v-2.9c0-0.2,0-0.5-0.1-0.7
		s-0.1-0.4-0.3-0.5c-0.1-0.2-0.3-0.3-0.6-0.3s-0.6-0.1-1-0.1c-0.3,0-0.5,0-0.8,0.1c-0.2,0.1-0.4,0.2-0.6,0.3s-0.3,0.3-0.4,0.5
		c-0.1,0.2-0.2,0.5-0.2,0.8v0.1C111.4,48.2,112.6,48.2,112.6,48.2z M107.9,52h1.4v-3.3c0-0.2,0-0.3,0.1-0.5c0.1-0.1,0.1-0.2,0.2-0.3
		c0.1-0.1,0.2-0.1,0.3-0.2c0.1,0,0.2-0.1,0.4-0.1c0.1,0,0.1,0,0.2,0c0.1,0,0.1,0,0.2,0v-1.3c0,0-0.1,0-0.1,0s-0.1,0-0.1,0
		c-0.3,0-0.5,0.1-0.7,0.2c-0.2,0.2-0.4,0.4-0.5,0.6h0v-0.7h-1.4L107.9,52L107.9,52z M105.5,46.5v0.6h0c-0.1-0.3-0.3-0.5-0.5-0.6
		c-0.2-0.1-0.4-0.2-0.6-0.2c-0.4,0-0.7,0.1-0.9,0.3c-0.2,0.2-0.4,0.4-0.5,0.7c-0.1,0.3-0.2,0.6-0.2,0.9c0,0.3-0.1,0.7-0.1,1
		c0,1,0.1,1.7,0.4,2.1c0.3,0.4,0.7,0.6,1.3,0.6c0.2,0,0.4-0.1,0.6-0.2c0.2-0.1,0.4-0.3,0.5-0.5h0V52c0,0.3-0.1,0.5-0.2,0.7
		c-0.1,0.2-0.3,0.3-0.6,0.3c-0.1,0-0.2,0-0.3,0c-0.1,0-0.2-0.1-0.2-0.1c-0.1-0.1-0.2-0.2-0.2-0.4h-1.4c0,0.5,0.2,0.8,0.5,1.1
		s0.8,0.4,1.4,0.4c0.8,0,1.4-0.2,1.8-0.5s0.5-0.9,0.5-1.6v-5.2C106.8,46.5,105.5,46.5,105.5,46.5z M104,48.5c0-0.3,0.1-0.5,0.1-0.6
		c0.1-0.2,0.1-0.3,0.2-0.3c0.1-0.1,0.2-0.1,0.4-0.1c0.3,0,0.5,0.1,0.6,0.4c0.1,0.3,0.2,0.8,0.2,1.4c0,0.2,0,0.4,0,0.6
		c0,0.2-0.1,0.4-0.1,0.5c-0.1,0.1-0.1,0.2-0.2,0.3c-0.1,0.1-0.2,0.1-0.4,0.1c-0.2,0-0.3,0-0.4-0.1c-0.1-0.1-0.2-0.2-0.2-0.3
		s-0.1-0.3-0.1-0.5c0-0.2,0-0.3,0-0.5C104,49.1,104,48.8,104,48.5 M99,48.5c0-0.2,0-0.4,0.1-0.6c0.1-0.2,0.1-0.3,0.2-0.4
		c0.1-0.1,0.2-0.1,0.4-0.1c0.3,0,0.5,0.2,0.6,0.4c0.1,0.3,0.2,0.8,0.2,1.5c0,0.7-0.1,1.2-0.2,1.5c-0.1,0.3-0.3,0.4-0.6,0.4
		c-0.2,0-0.3,0-0.4-0.1c-0.1-0.1-0.2-0.2-0.2-0.4C99,50.5,99,50.3,99,50c0-0.2,0-0.5,0-0.8C99,49,99,48.7,99,48.5 M97.7,50.5
		c0.1,0.4,0.2,0.7,0.3,0.9c0.2,0.2,0.4,0.4,0.7,0.5c0.3,0.1,0.6,0.2,1.1,0.2c0.4,0,0.7-0.1,1-0.2c0.3-0.1,0.5-0.3,0.7-0.6
		c0.2-0.2,0.3-0.5,0.4-0.9c0.1-0.4,0.1-0.8,0.1-1.2c0-0.5,0-0.9-0.1-1.3c-0.1-0.4-0.2-0.7-0.3-0.9c-0.2-0.2-0.4-0.4-0.7-0.5
		c-0.3-0.1-0.6-0.2-1.1-0.2c-0.4,0-0.7,0.1-1,0.2c-0.3,0.1-0.5,0.3-0.7,0.6c-0.2,0.2-0.3,0.5-0.4,0.9c-0.1,0.4-0.1,0.8-0.1,1.2
		C97.6,49.8,97.6,50.2,97.7,50.5 M95.3,52h1.4v-7.3h-1.4V52z M92.8,52h1.4v-7.3h-1.4V52z M90.4,50.4c0,0.2,0,0.3-0.1,0.4
		c-0.1,0.1-0.1,0.2-0.2,0.3c-0.1,0.1-0.2,0.1-0.3,0.1c-0.1,0-0.2,0-0.3,0c-0.2,0-0.3-0.1-0.4-0.2C89,50.8,89,50.6,89,50.4
		c0-0.2,0.1-0.4,0.2-0.6c0.1-0.1,0.3-0.2,0.6-0.3c0.1,0,0.2-0.1,0.3-0.1c0.1,0,0.2-0.1,0.3-0.2V50.4z M89.1,48.2v-0.2
		c0-0.2,0.1-0.4,0.2-0.5c0.1-0.1,0.3-0.2,0.5-0.2c0.2,0,0.4,0.1,0.5,0.2s0.1,0.3,0.1,0.5c0,0.2,0,0.3-0.1,0.4
		c-0.1,0.1-0.2,0.2-0.4,0.2L89,48.9c-0.2,0.1-0.5,0.1-0.6,0.2s-0.3,0.2-0.4,0.3c-0.1,0.1-0.2,0.3-0.3,0.5c-0.1,0.2-0.1,0.4-0.1,0.7
		c0,0.2,0,0.4,0.1,0.6c0,0.2,0.1,0.4,0.2,0.5c0.1,0.2,0.2,0.3,0.4,0.4c0.2,0.1,0.4,0.1,0.6,0.1c0.3,0,0.6,0,0.8-0.1s0.4-0.3,0.6-0.6
		h0c0,0.1,0,0.2,0.1,0.3s0.1,0.2,0.1,0.3h1.3c-0.1-0.2-0.1-0.3-0.1-0.5c0-0.1,0-0.3,0-0.6v-2.9c0-0.2,0-0.5-0.1-0.7
		s-0.1-0.4-0.3-0.5c-0.1-0.2-0.3-0.3-0.6-0.3c-0.3-0.1-0.6-0.1-1-0.1c-0.3,0-0.5,0-0.8,0.1c-0.2,0.1-0.4,0.2-0.6,0.3
		s-0.3,0.3-0.4,0.5c-0.1,0.2-0.2,0.5-0.2,0.8v0.1C87.8,48.2,89.1,48.2,89.1,48.2z M84.9,46.5h-0.7v1h0.7v3.2c0,0.3,0,0.5,0.1,0.7
		c0,0.2,0.1,0.3,0.2,0.4c0.1,0.1,0.2,0.2,0.4,0.2c0.2,0,0.4,0.1,0.7,0.1c0.2,0,0.3,0,0.5,0c0.1,0,0.3,0,0.5,0v-1c0,0-0.1,0-0.2,0
		c-0.1,0-0.1,0-0.2,0c-0.2,0-0.3,0-0.4-0.1c-0.1-0.1-0.1-0.2-0.1-0.5v-3h0.8v-1h-0.8v-1.6h-1.4C84.9,44.9,84.9,46.5,84.9,46.5z
		 M79.7,50.2v0.2c0,0.3,0,0.5,0.1,0.7c0.1,0.2,0.2,0.4,0.3,0.6c0.2,0.2,0.4,0.3,0.6,0.4c0.3,0.1,0.6,0.1,1,0.1c0.3,0,0.6,0,0.8-0.1
		s0.5-0.2,0.6-0.3c0.2-0.1,0.3-0.3,0.4-0.5c0.1-0.2,0.2-0.5,0.2-0.8c0-0.4-0.1-0.7-0.3-1c-0.2-0.2-0.5-0.4-0.9-0.6l-0.8-0.3
		c-0.2-0.1-0.4-0.2-0.5-0.3c-0.1-0.1-0.1-0.2-0.1-0.4c0-0.2,0.1-0.3,0.2-0.4c0.1-0.1,0.3-0.1,0.5-0.1c0.2,0,0.4,0.1,0.5,0.2
		c0.1,0.1,0.1,0.3,0.1,0.6h1.3v-0.2c0-0.5-0.2-0.9-0.5-1.2c-0.3-0.3-0.8-0.4-1.4-0.4c-0.4,0-0.7,0-0.9,0.1c-0.3,0.1-0.5,0.2-0.6,0.4
		c-0.2,0.2-0.3,0.3-0.4,0.5c-0.1,0.2-0.1,0.4-0.1,0.6c0,0.4,0.1,0.7,0.3,1c0.2,0.2,0.5,0.4,0.9,0.6l1,0.4c0.1,0.1,0.3,0.1,0.4,0.2
		c0.1,0.1,0.2,0.2,0.2,0.4c0,0.2-0.1,0.4-0.2,0.5c-0.1,0.1-0.3,0.2-0.5,0.2c-0.2,0-0.4-0.1-0.5-0.2C81,50.8,81,50.6,81,50.4v-0.2
		H79.7z M77.5,52h1.4v-5.5h-1.4V52z M77.5,45.8h1.4v-1.2h-1.4V45.8z M73.9,52h1.4v-3.3c0-0.2,0-0.3,0.1-0.5c0.1-0.1,0.1-0.2,0.2-0.3
		c0.1-0.1,0.2-0.1,0.3-0.2c0.1,0,0.2-0.1,0.4-0.1c0.1,0,0.1,0,0.2,0c0.1,0,0.1,0,0.2,0v-1.3c0,0-0.1,0-0.1,0c0,0-0.1,0-0.1,0
		c-0.3,0-0.5,0.1-0.7,0.2c-0.2,0.2-0.4,0.4-0.5,0.6h0v-0.7h-1.4L73.9,52L73.9,52z M68.2,44.7V52h1.5v-2.2l0.5-0.8l1.5,3h1.7
		l-2.2-4.2l2-3.1h-1.6l-1.9,2.9h0v-2.9H68.2z"/>
	<path class="st0" d="M108.5,40.4h1.4v-3.3c0-0.2,0-0.3,0.1-0.5c0.1-0.1,0.1-0.2,0.2-0.3c0.1-0.1,0.2-0.1,0.3-0.2
		c0.1,0,0.2-0.1,0.4-0.1c0.1,0,0.1,0,0.2,0c0.1,0,0.1,0,0.2,0v-1.3c0,0-0.1,0-0.1,0c0,0-0.1,0-0.1,0c-0.3,0-0.5,0.1-0.7,0.2
		c-0.2,0.2-0.4,0.4-0.5,0.6h0v-0.7h-1.4V40.4z M104,34.1h1.1v-1.2H104V34.1z M105.8,34.1h1.1v-1.2h-1.1V34.1z M106.2,40.4h1.4v-5.5
		h-1.4v3.7c0,0.6-0.2,0.9-0.7,0.9c-0.2,0-0.4-0.1-0.5-0.2c-0.1-0.1-0.1-0.3-0.1-0.6v-3.8h-1.4V39c0,0.6,0.1,1,0.4,1.2
		c0.2,0.2,0.6,0.4,1,0.4c0.3,0,0.6-0.1,0.8-0.2c0.2-0.1,0.4-0.3,0.6-0.6h0L106.2,40.4L106.2,40.4z M100.5,40.4h1.4v-4.5h0.8v-1h-0.8
		v-0.5c0-0.2,0-0.3,0.1-0.3c0.1-0.1,0.2-0.1,0.4-0.1h0.1c0.1,0,0.1,0,0.1,0v-1c-0.3,0-0.5,0-0.8,0c-0.2,0-0.4,0-0.6,0.1
		c-0.2,0-0.3,0.1-0.5,0.2c-0.1,0.1-0.2,0.2-0.3,0.4c-0.1,0.2-0.1,0.4-0.1,0.6v0.6h-0.7v1h0.7V40.4z M95.1,34.9h-0.7v1h0.7V39
		c0,0.3,0,0.5,0.1,0.7s0.1,0.3,0.2,0.4c0.1,0.1,0.2,0.2,0.4,0.2c0.2,0,0.4,0.1,0.7,0.1c0.2,0,0.3,0,0.5,0c0.1,0,0.3,0,0.5,0v-1
		c0,0-0.1,0-0.2,0c-0.1,0-0.1,0-0.2,0c-0.2,0-0.3,0-0.4-0.1c-0.1-0.1-0.1-0.2-0.1-0.5v-3h0.8v-1h-0.8v-1.6h-1.4V34.9z M92.4,40.4
		h1.4v-5.5h-1.4v3.7c0,0.6-0.2,0.9-0.7,0.9c-0.2,0-0.4-0.1-0.5-0.2c-0.1-0.1-0.1-0.3-0.1-0.6v-3.8h-1.4V39c0,0.6,0.1,1,0.4,1.2
		c0.2,0.2,0.6,0.4,1,0.4c0.3,0,0.6-0.1,0.8-0.2c0.2-0.1,0.4-0.3,0.6-0.6h0C92.4,39.8,92.4,40.4,92.4,40.4z M86.7,34.9H86v1h0.7V39
		c0,0.3,0,0.5,0.1,0.7c0,0.2,0.1,0.3,0.2,0.4c0.1,0.1,0.2,0.2,0.4,0.2c0.2,0,0.4,0.1,0.7,0.1c0.2,0,0.3,0,0.5,0c0.1,0,0.3,0,0.5,0
		v-1c0,0-0.1,0-0.2,0c-0.1,0-0.1,0-0.2,0c-0.2,0-0.3,0-0.4-0.1c-0.1-0.1-0.1-0.2-0.1-0.5v-3h0.8v-1h-0.8v-1.6h-1.4V34.9z M83.9,40.4
		h1.4v-5.5h-1.4V40.4z M83.9,34.2h1.4V33h-1.4V34.2z M81,34.9h-0.7v1H81V39c0,0.3,0,0.5,0.1,0.7c0,0.2,0.1,0.3,0.2,0.4
		c0.1,0.1,0.2,0.2,0.4,0.2c0.2,0,0.4,0.1,0.7,0.1c0.2,0,0.3,0,0.5,0c0.1,0,0.3,0,0.5,0v-1c0,0-0.1,0-0.2,0c-0.1,0-0.1,0-0.2,0
		c-0.2,0-0.3,0-0.4-0.1c-0.1-0.1-0.1-0.2-0.1-0.5v-3h0.8v-1h-0.8v-1.6H81V34.9z M75.8,38.6v0.2c0,0.3,0,0.5,0.1,0.7
		c0.1,0.2,0.2,0.4,0.3,0.6c0.2,0.2,0.4,0.3,0.6,0.4c0.3,0.1,0.6,0.1,1,0.1c0.3,0,0.6,0,0.8-0.1c0.3-0.1,0.5-0.2,0.6-0.3
		c0.2-0.1,0.3-0.3,0.4-0.5c0.1-0.2,0.2-0.5,0.2-0.8c0-0.4-0.1-0.7-0.3-1c-0.2-0.2-0.5-0.4-0.9-0.6L77.8,37c-0.2-0.1-0.4-0.2-0.5-0.3
		c-0.1-0.1-0.1-0.2-0.1-0.4c0-0.2,0.1-0.3,0.2-0.4c0.1-0.1,0.3-0.1,0.5-0.1c0.2,0,0.4,0.1,0.5,0.2c0.1,0.1,0.1,0.3,0.1,0.6h1.3v-0.2
		c0-0.5-0.2-0.9-0.5-1.2c-0.3-0.3-0.8-0.4-1.4-0.4c-0.4,0-0.7,0-0.9,0.1c-0.3,0.1-0.5,0.2-0.6,0.4c-0.2,0.2-0.3,0.3-0.4,0.5
		c-0.1,0.2-0.1,0.4-0.1,0.6c0,0.4,0.1,0.7,0.3,1c0.2,0.2,0.5,0.4,0.9,0.6l1,0.4c0.1,0.1,0.3,0.1,0.4,0.2c0.1,0.1,0.2,0.2,0.2,0.4
		c0,0.2-0.1,0.4-0.2,0.5c-0.1,0.1-0.3,0.2-0.5,0.2c-0.2,0-0.4-0.1-0.5-0.2c-0.1-0.1-0.2-0.3-0.2-0.6v-0.2
		C77.1,38.6,75.8,38.6,75.8,38.6z M70.8,40.4h1.4v-3.7c0-0.6,0.2-0.9,0.7-0.9c0.2,0,0.4,0.1,0.5,0.2c0.1,0.1,0.1,0.3,0.1,0.6v3.8H75
		v-4.1c0-0.6-0.1-1-0.4-1.2c-0.2-0.2-0.6-0.4-1-0.4c-0.3,0-0.6,0.1-0.8,0.2c-0.2,0.1-0.4,0.3-0.6,0.6h0v-0.6h-1.3
		C70.8,34.9,70.8,40.4,70.8,40.4z M69.8,33.1h-1.5v7.3h1.5V33.1z"/>
	<path class="st1" d="M53.2,30.7c-0.5-0.5-0.8-1.1-0.8-1.9s0.3-1.4,0.8-1.9L30.7,4.5c-0.5,0.5-1.1,0.8-1.9,0.8
		c-0.7,0-1.4-0.3-1.9-0.8L4.5,27c0.5,0.5,0.8,1.1,0.8,1.9S5,30.2,4.5,30.7L27,53.2c0.5-0.5,1.1-0.8,1.9-0.8c0.7,0,1.4,0.3,1.9,0.8
		l6.1-6.1h-7.7V44h10.8l2.1-2.1L53.2,30.7z"/>
</g>
<polygon class="st2" points="52.1,11.5 54.2,13.7 47.8,20.1 49.9,22.3 56.4,15.8 58.6,18 60.8,9.3 "/>
<path class="st0" d="M20.7,46.9l0.2,0.2L20.7,46.9z M16.3,44H0V47h19.4L16.3,44z"/>
<g>
	<path class="st0" d="M15.4,38.7h3.1V19.2h-3.1V38.7z M22.3,38.7h3V26.2h2.4V24h-2.4v-1.3c0-0.5,0.1-0.8,0.4-1.1
		c0.3-0.2,0.7-0.3,1.2-0.3h0.8V19C27.2,19,26.7,19,26,19c-1.2,0-2.1,0.3-2.8,0.8c-0.6,0.5-1,1.5-1,2.9V24h-2v2.2h2
		C22.3,26.2,22.3,38.7,22.3,38.7z M29.2,38.7h3.1v-6.3l1.7-2.5l4.7,8.8h3.5L36,27.4l5.6-8.2h-3.4l-5.9,8.5h-0.1v-8.5h-3.1V38.7z"/>
	<path class="st3" d="M55,31.4c1.4,0,2.6-1.2,2.6-2.6c0-1.4-1.2-2.6-2.6-2.6c-1.4,0-2.6,1.2-2.6,2.6C52.4,30.3,53.6,31.4,55,31.4"/>
</g>
<polygon class="st0" points="53.3,40.8 53.3,44 29.1,44 29.1,47 53.3,47 53.3,50 61,45.4 "/>
<g>
	<path class="st4" d="M53.2,30.7L41.9,41.9h1.4L54,31.2C53.7,31.1,53.4,30.9,53.2,30.7 M31.3,3.6c0.1-0.3,0.2-0.6,0.2-1
		c0-1.4-1.2-2.6-2.6-2.6c-1.4,0-2.6,1.2-2.6,2.6c0,0.3,0.1,0.7,0.2,1L3.6,26.4c-0.3-0.1-0.6-0.2-1-0.2c-1.4,0-2.6,1.2-2.6,2.6
		c0,1.4,1.2,2.6,2.6,2.6c0.3,0,0.7-0.1,1-0.2L26.4,54c-0.1,0.3-0.2,0.6-0.2,1c0,1.4,1.2,2.6,2.6,2.6c1.4,0,2.6-1.2,2.6-2.6
		c0-0.3-0.1-0.7-0.2-1l4.9-4.9h-1.4l-4,4c-0.5-0.5-1.1-0.8-1.9-0.8s-1.4,0.3-1.9,0.8L4.5,30.7c0.5-0.5,0.8-1.1,0.8-1.9
		c0-0.7-0.3-1.4-0.8-1.9L27,4.5c0.5,0.5,1.1,0.8,1.9,0.8c0.7,0,1.4-0.3,1.9-0.8L53.2,27c0.2-0.2,0.5-0.4,0.9-0.6L31.3,3.6z"/>
</g>
</svg>
